<?xml version="1.0" encoding="iso-8859-1"?>
<!-- Generator: Adobe Illustrator 19.0.0, SVG Export Plug-In . SVG Version: 6.00 Build 0)  -->
<svg version="1.1" id="Layer_1" xmlns="http://www.w3.org/2000/svg" xmlns:xlink="http://www.w3.org/1999/xlink" x="0px" y="0px"
	 viewBox="0 0 511.998 511.998" style="enable-background:new 0 0 511.998 511.998;" xml:space="preserve">
<path style="fill:#CCCCCC;" d="M446.644,465.703l2.801,27.226c6.705-4.264,12.306-10.361,15.907-17.92
	c6.326-13.277,5.384-27.917-1.018-39.716c-9.152-16.863-10.886-36.76-3.763-54.574l19.124-47.82
	c3.746-9.368,9.882-17.508,17.464-24.161c4.998-4.385,9.065-9.979,11.703-16.576c9.133-22.835-2.375-48.804-25.664-57.276
	l2.834,27.54c1.092,10.61-6.624,20.096-17.234,21.188l0,0c-10.61,1.092-20.096-6.624-21.188-17.234l-2.801-27.226
	c-6.705,4.264-12.306,10.361-15.907,17.92c-6.326,13.277-5.384,27.917,1.018,39.716c9.152,16.863,10.886,36.76,3.763,54.574
	l-12.08,30.207l-7.044,17.613c-3.746,9.368-9.882,17.508-17.464,24.161c-4.998,4.385-9.065,9.979-11.703,16.576
	c-4.869,12.174-3.871,25.238,1.65,36.067c5.638,11.06,22.45,6.016,21.179-6.332l0,0c-1.092-10.61,6.624-20.096,17.234-21.188
	C425.456,448.469,442.436,447.131,446.644,465.703"/>
<path style="fill:#5E86B7;" d="M398.84,399.835v106.287H143.63V399.835c0-28.073,15.992-52.423,39.359-64.435
	c9.916-5.093,21.143-7.961,33.049-7.961h110.408c11.906,0,23.133,2.88,33.049,7.961C382.86,347.423,398.84,371.762,398.84,399.835z"
	/>
<path style="fill:#527BA3;" d="M260.644,327.439h-44.61c-39.986,0-72.402,32.415-72.402,72.402v106.276h44.61V399.841
	C188.242,359.855,220.657,327.439,260.644,327.439z"/>
<path style="fill:#F76B4F;" d="M359.493,335.402v170.722H182.988V335.402c9.916-5.092,21.143-7.961,33.049-7.961h110.408
	C338.35,327.44,349.577,330.32,359.493,335.402z"/>
<path style="fill:#E0B394;" d="M322.181,303.898v65.039c0,28.133-22.811,50.944-50.944,50.944
	c-28.142,0-50.944-22.811-50.944-50.944v-65.039H322.181z"/>
<path style="fill:#5E86B7;" d="M271.236,426.32c-31.64,0-57.383-25.742-57.383-57.383v-65.039c0-3.557,2.882-6.439,6.439-6.439
	H322.18c3.555,0,6.439,2.882,6.439,6.439v65.039C328.62,400.577,302.879,426.32,271.236,426.32z M226.732,310.337v58.6
	c0,24.54,19.965,44.505,44.505,44.505c24.541,0,44.506-19.965,44.506-44.505v-58.6H226.732z"/>
<path style="fill:#AF7C38;" d="M72.568,343.963h26.794l3.024,143.628c0.194,9.204-7.215,16.77-16.42,16.77l0,0
	c-9.206,0-16.614-7.566-16.42-16.77L72.568,343.963z"/>
<path style="fill:#9B6A31;" d="M82.628,487.591l3.024-143.628H72.568l-3.024,143.628c-0.194,9.204,7.215,16.77,16.42,16.77
	c2.327,0,4.539-0.487,6.543-1.358C86.585,500.428,82.484,494.468,82.628,487.591z"/>
<path style="fill:#F76B4F;" d="M15.398,219.523C6.894,219.523,0,226.417,0,234.921c0,8.504,6.894,15.398,15.398,15.398H12.58
	c0,30.482,18.587,56.619,45.045,67.706c5.489,2.3,9.075,7.653,9.075,13.605v14.288h38.529V331.63c0-5.952,3.586-11.304,9.076-13.605
	c26.458-11.086,45.045-37.223,45.045-67.706l25.242-30.796L15.398,219.523L15.398,219.523z"/>
<path style="fill:#E5624C;" d="M79.037,331.631v14.282H66.709v-14.282c0-5.959-3.594-11.309-9.085-13.603
	c-26.458-11.086-45.036-37.228-45.036-67.713h2.81c-8.499,0-15.395-6.895-15.395-15.395c0-8.499,6.895-15.395,15.395-15.395h37.064
	c-4.402,0-7.972,6.895-7.972,15.395c0,8.499,3.571,15.395,7.972,15.395H51.01c0,30.485,9.623,56.626,23.332,67.713
	C77.187,320.322,79.037,325.672,79.037,331.631z"/>
<path style="fill:#F76B4F;" d="M480.485,102.224c-1.701-2.319-2.551-5.063-2.551-7.809c0-2.744,0.85-5.489,2.551-7.807
	c6.481-8.864-0.026-21.041-10.578-21.041c-0.502,0-1.004,0.026-1.521,0.077c-5.734,0.631-11.196-2.525-13.528-7.807
	c-2.319-5.256-7.215-7.886-12.098-7.886s-9.78,2.628-12.099,7.886c-2.126,4.831-6.893,7.885-12.073,7.885
	c-0.489,0-0.966-0.026-1.456-0.077c-8.414-0.914-14.676,5.863-14.676,13.207c0,2.615,0.798,5.308,2.59,7.757
	c1.701,2.319,2.551,5.063,2.551,7.807c0,2.744-0.85,5.489-2.551,7.809c-6.481,8.852,0.026,21.041,10.553,21.041
	c0.502,0,1.018-0.039,1.534-0.09c0.476-0.052,0.953-0.077,1.431-0.077c5.192,0,9.973,3.054,12.099,7.886
	c2.319,5.256,7.215,7.897,12.099,7.897s9.779-2.641,12.098-7.897c2.139-4.831,6.906-7.886,12.099-7.886
	c0.476,0,0.953,0.026,1.429,0.077c8.427,0.914,14.689-5.85,14.689-13.194C483.075,107.365,482.276,104.671,480.485,102.224z
	 M442.76,108.383c-7.705,0-13.966-6.262-13.966-13.966c0-7.717,6.262-13.966,13.966-13.966c7.717,0,13.966,6.249,13.966,13.966
	C456.726,102.121,450.477,108.383,442.76,108.383z"/>
<g>
	<path style="fill:#E0B394;" d="M148.996,228.481c-14.517-0.644-26.071-12.62-26.071-27.289c0-15.078,12.222-27.312,27.312-27.312
		c1.358,0,2.693,0.094,4.004,0.293L148.996,228.481z"/>
	<path style="fill:#E0B394;" d="M393.46,228.481c14.517-0.644,26.083-12.62,26.083-27.289c0-15.078-12.234-27.312-27.324-27.312
		c-1.358,0-2.704,0.105-4.004,0.293L393.46,228.481z"/>
</g>
<path style="fill:#F7CBA4;" d="M231.722,346.538l-48.056-34.915c-25.395-18.45-39.133-48.961-36.113-80.205l8.335-86.254
	c5.741-59.407,55.663-104.737,115.346-104.737l0,0c59.683,0,109.605,45.33,115.346,104.737l8.335,86.254
	c3.019,31.245-10.718,61.754-36.113,80.205l-48.056,34.915C287.184,363.656,255.282,363.656,231.722,346.538z"/>
<path style="fill:#E8BA97;" d="M177.458,248.417c-0.808,13.662,3.641,27.101,12.444,37.579l50.226,61.719
	c2.622,3.126,5.596,5.748,8.815,7.844c-6.041-2.107-11.847-5.128-17.221-9.026l-48.057-34.91
	c-25.392-18.45-39.124-48.958-36.104-80.204l8.324-86.256c5.69-58.827,54.695-103.852,113.615-104.706
	c-36.291,0.878-77.386,35.086-79.528,71.517L177.458,248.417z"/>
<rect x="217.678" y="449.708" style="fill:#E5624C;" width="107.118" height="56.404"/>
<path style="fill:#666666;" d="M280.011,326.459l-8.78,13.267l-8.78-13.267c-3.209-4.849-1.879-11.381,2.97-14.59
	s11.381-1.879,14.59,2.97C282.413,318.466,282.265,323.044,280.011,326.459z"/>
<path style="fill:#C0E7F9;" d="M57.116,140.664L57.116,140.664c-11.315-11.315-11.315-29.659,0-40.974l20.487-20.487L98.09,99.69
	c11.315,11.315,11.315,29.659,0,40.974l0,0C86.775,151.979,68.429,151.979,57.116,140.664z"/>
<path style="fill:#F2F2F2;" d="M317.063,273.973c0,0-0.667,1.639-2.072,4.226c-0.34,0.667-0.738,1.37-1.182,2.131
	c-0.527,0.749-1.136,1.51-1.791,2.365c-0.656,0.855-1.405,1.721-2.201,2.681c-0.281,0.363-0.585,0.667-0.913,0.983
	c-0.117,0.117-0.246,0.234-0.375,0.351c-0.457,0.421-0.925,0.866-1.405,1.311c-0.96,0.901-2.002,1.791-3.091,2.728
	c-1.147,0.843-2.376,1.639-3.641,2.505c-0.632,0.433-1.288,0.855-1.955,1.276c-0.667,0.398-1.381,0.726-2.107,1.089
	c-1.428,0.726-2.915,1.428-4.449,2.131c-3.161,1.077-6.45,2.341-9.963,2.868c-3.465,0.808-7.083,0.937-10.688,1.112
	c-3.606-0.176-7.223-0.293-10.688-1.1c-3.512-0.527-6.802-1.791-9.963-2.868c-1.534-0.691-3.02-1.393-4.46-2.119
	c-0.714-0.363-1.428-0.691-2.107-1.089c-0.656-0.433-1.311-0.843-1.943-1.276c-1.264-0.866-2.505-1.674-3.653-2.505
	c-1.089-0.937-2.119-1.838-3.091-2.728c-0.48-0.457-0.937-0.89-1.393-1.323c-0.164-0.152-0.328-0.304-0.492-0.457
	c-0.281-0.281-0.55-0.55-0.784-0.866c-0.761-0.925-1.498-1.779-2.142-2.622c-0.632-0.855-1.253-1.604-1.768-2.353
	c-0.468-0.796-0.901-1.522-1.264-2.189c-1.463-2.669-2.072-4.261-2.072-4.261s1.733,0.527,4.402,1.604
	c0.679,0.258,1.381,0.574,2.166,0.89c0.831,0.246,1.686,0.562,2.599,0.866c0.925,0.304,1.85,0.679,2.833,1.03
	c0.972,0.375,2.072,0.62,3.161,0.948c1.089,0.316,2.177,0.702,3.313,1.042c1.182,0.258,2.365,0.562,3.582,0.855
	c0.609,0.141,1.206,0.316,1.815,0.48c0.62,0.14,1.264,0.222,1.897,0.351c1.276,0.222,2.552,0.48,3.828,0.773
	c2.657,0.246,5.28,0.831,8.019,0.937c2.704,0.351,5.467,0.258,8.207,0.421c2.751-0.164,5.514-0.059,8.218-0.41
	c2.739-0.094,5.362-0.691,8.019-0.937c1.276-0.281,2.552-0.539,3.828-0.761c0.632-0.129,1.276-0.211,1.897-0.351
	c0.609-0.176,1.218-0.339,1.815-0.48c1.218-0.293,2.4-0.609,3.582-0.855c1.147-0.339,2.236-0.726,3.325-1.042
	c1.077-0.328,2.201-0.585,3.137-0.948c0.96-0.328,1.861-0.691,2.775-0.972c0.901-0.304,1.744-0.609,2.576-0.855
	c0.819-0.351,1.545-0.691,2.236-0.96C315.365,274.465,317.063,273.973,317.063,273.973z"/>
<g>
	<path style="fill:#4D4D4D;" d="M308.903,286.359c-0.117,0.117-0.246,0.234-0.375,0.351c-0.457,0.421-0.925,0.866-1.405,1.311
		c-0.96,0.901-2.002,1.791-3.091,2.728c-1.147,0.843-2.376,1.639-3.641,2.505c-0.632,0.433-1.288,0.855-1.955,1.276
		c-0.667,0.398-1.381,0.726-2.107,1.089c-1.428,0.726-2.915,1.428-4.449,2.131c-3.161,1.077-6.45,2.341-9.963,2.868
		c-3.465,0.808-7.083,0.937-10.688,1.112c-3.606-0.176-7.223-0.293-10.688-1.1c-3.512-0.527-6.802-1.791-9.963-2.868
		c-1.534-0.691-3.02-1.393-4.46-2.119c-0.714-0.363-1.428-0.691-2.107-1.089c-0.656-0.433-1.311-0.843-1.943-1.276
		c-1.264-0.866-2.505-1.674-3.653-2.505c-1.089-0.937-2.119-1.838-3.091-2.728c-0.48-0.457-0.937-0.89-1.393-1.323
		c-0.164-0.152-0.328-0.304-0.492-0.457c0.375,0.129,0.749,0.258,1.136,0.386c0.925,0.304,1.85,0.667,2.833,1.018
		c0.972,0.386,2.072,0.632,3.161,0.96c1.089,0.316,2.177,0.691,3.313,1.042c1.182,0.246,2.365,0.562,3.582,0.855
		c0.609,0.14,1.206,0.304,1.815,0.468c0.62,0.14,1.264,0.222,1.897,0.351c1.276,0.222,2.552,0.492,3.828,0.773
		c2.657,0.258,5.28,0.843,8.019,0.937c2.704,0.363,5.467,0.258,8.207,0.433c2.751-0.164,5.514-0.059,8.218-0.421
		c2.739-0.094,5.362-0.679,8.019-0.925c1.276-0.281,2.552-0.55,3.828-0.773c0.632-0.129,1.276-0.211,1.897-0.351
		c0.609-0.164,1.218-0.328,1.815-0.468c1.218-0.293,2.4-0.609,3.582-0.855c1.147-0.351,2.236-0.738,3.325-1.042
		c1.077-0.328,2.201-0.597,3.137-0.948c0.96-0.34,1.861-0.691,2.775-0.983C308.189,286.605,308.552,286.476,308.903,286.359z"/>
	<path style="fill:#4D4D4D;" d="M219.118,231.831c-4.849,0-8.78-3.931-8.78-8.78v-14.044c0-4.849,3.931-8.78,8.78-8.78
		s8.78,3.931,8.78,8.78v14.044C227.898,227.899,223.967,231.831,219.118,231.831z"/>
</g>
<g>
	<path style="fill:#666666;" d="M303.274,185.594c0,0,0.023-0.233,0.102-0.633c0.09-0.387,0.181-1,0.378-1.693
		c0.088-0.358,0.201-0.732,0.331-1.143c0.17-0.417,0.398-0.836,0.64-1.311c0.24-0.478,0.543-0.949,0.862-1.48
		c0.321-0.539,0.704-0.947,1.096-1.467c0.398-0.5,0.846-0.983,1.315-1.503c0.495-0.469,1.033-0.932,1.604-1.397
		c1.118-0.985,2.484-1.696,3.908-2.488c1.473-0.623,3.036-1.298,4.71-1.611c1.658-0.431,3.396-0.533,5.13-0.613
		c1.734,0.08,3.473,0.172,5.132,0.601c1.675,0.309,3.239,0.988,4.713,1.606c1.425,0.79,2.792,1.501,3.911,2.487
		c0.57,0.466,1.109,0.93,1.605,1.397c0.468,0.521,0.914,1.009,1.315,1.505c0.386,0.517,0.788,0.942,1.082,1.46
		c0.295,0.515,0.581,0.976,0.812,1.443c0.231,0.468,0.454,0.88,0.623,1.296c0.153,0.433,0.289,0.825,0.39,1.196
		c0.222,0.718,0.315,1.335,0.4,1.721c0.075,0.399,0.091,0.626,0.091,0.626s-0.242-0.006-0.652-0.046
		c-0.398-0.052-1.016-0.077-1.699-0.177c-0.354-0.036-0.714-0.102-1.111-0.155c-0.423-0.02-0.839-0.078-1.292-0.114
		c-0.889-0.094-1.816-0.233-2.835-0.273c-0.501-0.033-0.987-0.105-1.495-0.148c-0.526-0.007-1.044-0.034-1.559-0.073
		c-1.009-0.131-2.106-0.054-3.125-0.181c-1.071,0.039-2.097-0.092-3.159-0.06c-1.044-0.078-2.1,0.005-3.148-0.069
		c-1.048,0.071-2.104-0.02-3.15,0.056c-1.063-0.037-2.089,0.098-3.162,0.055c-1.02,0.126-2.119,0.048-3.128,0.18
		c-0.515,0.039-1.034,0.067-1.561,0.073c-0.508,0.042-0.992,0.119-1.495,0.15c-1.04,0.056-1.904,0.155-2.771,0.229
		c-0.455,0.035-0.882,0.068-1.276,0.097c-0.42,0.076-0.804,0.16-1.169,0.208c-0.708,0.125-1.328,0.155-1.721,0.205
		C303.508,185.593,303.274,185.594,303.274,185.594z"/>
	<path style="fill:#666666;" d="M199.043,185.594c0,0,0.023-0.233,0.102-0.633c0.09-0.387,0.181-1,0.378-1.693
		c0.088-0.358,0.201-0.732,0.331-1.143c0.17-0.417,0.398-0.836,0.64-1.311c0.24-0.478,0.543-0.949,0.862-1.48
		c0.321-0.539,0.704-0.947,1.096-1.467c0.398-0.5,0.846-0.983,1.315-1.503c0.495-0.469,1.033-0.932,1.604-1.397
		c1.118-0.985,2.484-1.696,3.908-2.488c1.473-0.623,3.036-1.298,4.71-1.611c1.658-0.431,3.396-0.533,5.13-0.613
		c1.734,0.08,3.473,0.172,5.132,0.601c1.675,0.309,3.239,0.988,4.713,1.606c1.425,0.79,2.792,1.501,3.911,2.487
		c0.57,0.466,1.109,0.93,1.605,1.397c0.468,0.521,0.914,1.009,1.315,1.505c0.386,0.517,0.788,0.942,1.082,1.46
		c0.295,0.515,0.581,0.976,0.812,1.443c0.231,0.468,0.454,0.88,0.623,1.296c0.153,0.433,0.289,0.825,0.39,1.196
		c0.222,0.718,0.315,1.335,0.4,1.721c0.075,0.399,0.091,0.626,0.091,0.626s-0.242-0.006-0.652-0.046
		c-0.398-0.052-1.016-0.077-1.699-0.177c-0.354-0.036-0.714-0.102-1.111-0.155c-0.423-0.02-0.839-0.078-1.292-0.114
		c-0.889-0.094-1.816-0.233-2.835-0.273c-0.501-0.033-0.987-0.105-1.495-0.148c-0.526-0.007-1.044-0.034-1.559-0.073
		c-1.009-0.131-2.106-0.054-3.125-0.181c-1.071,0.039-2.097-0.092-3.159-0.06c-1.044-0.078-2.1,0.005-3.148-0.069
		c-1.048,0.071-2.104-0.02-3.15,0.056c-1.063-0.037-2.089,0.098-3.162,0.055c-1.02,0.126-2.119,0.048-3.128,0.18
		c-0.515,0.039-1.034,0.067-1.561,0.073c-0.508,0.042-0.992,0.119-1.495,0.15c-1.04,0.056-1.904,0.155-2.771,0.229
		c-0.455,0.035-0.882,0.068-1.276,0.097c-0.42,0.076-0.804,0.16-1.17,0.208c-0.708,0.125-1.328,0.155-1.721,0.205
		C199.278,185.593,199.043,185.594,199.043,185.594z"/>
</g>
<path style="fill:#4D4D4D;" d="M323.349,231.831c-4.849,0-8.78-3.931-8.78-8.78v-14.044c0-4.849,3.931-8.78,8.78-8.78
	s8.78,3.931,8.78,8.78v14.044C332.129,227.899,328.198,231.831,323.349,231.831z"/>
<path style="fill:#E0B394;" d="M284.697,196.13v41.559c0,7.435-6.028,13.463-13.463,13.463l0,0c-7.435,0-13.463-6.028-13.463-13.463
	V196.13H284.697z"/>
<path style="fill:#527BA3;" d="M387.635,150.853l-1.826-38.598h0.012l-3.805-49.403c-1.499-19.328-15.418-35.425-34.336-39.675
	L270.707,5.886l0,0l-0.023-0.012h-0.012l-76.996,17.303c-18.918,4.25-32.85,20.347-34.336,39.675l-3.805,49.403l-1.826,38.598
	c-1.159,14.868,15.055,24.795,27.745,16.963c54.531-33.716,123.906-33.716,178.437,0
	C372.58,175.648,388.783,165.721,387.635,150.853z"/>
<g>
	<path style="fill:#5E86B7;" d="M271.246,5.875v92.531c-2.927,0-5.853,0.023-8.78,0.082c-22.372,0.386-44.709,2.341-66.882,5.842
		l2.119-41.489c0.983-19.316,10.185-35.413,22.665-39.663L262.466,8.86l8.768-2.985C271.235,5.875,271.246,5.875,271.246,5.875z"/>
	<path style="fill:#5E86B7;" d="M346.885,104.33c-22.161-3.489-44.498-5.444-66.858-5.842c-2.927-0.059-5.853-0.082-8.78-0.082
		V5.875l0.023,0.012l8.757,2.974l42.075,14.318c12.503,4.25,21.693,20.347,22.676,39.663L346.885,104.33z"/>
</g>
<path style="fill:#527BA3;" d="M262.466,8.86l8.768-2.985h0.012l0.023,0.012l8.757,2.974v89.628
	c-2.927-0.059-5.853-0.082-8.78-0.082s-5.853,0.023-8.78,0.082"/>
<g>
</g>
<g>
</g>
<g>
</g>
<g>
</g>
<g>
</g>
<g>
</g>
<g>
</g>
<g>
</g>
<g>
</g>
<g>
</g>
<g>
</g>
<g>
</g>
<g>
</g>
<g>
</g>
<g>
</g>
</svg>
